<?xml version="1.0" encoding="UTF-8" standalone="no"?>
<!-- Generator: Adobe Illustrator 23.0.5, SVG Export Plug-In . SVG Version: 6.00 Build 0)  -->

<svg
   xmlns:dc="http://purl.org/dc/elements/1.1/"
   xmlns:cc="http://creativecommons.org/ns#"
   xmlns:rdf="http://www.w3.org/1999/02/22-rdf-syntax-ns#"
   xmlns:svg="http://www.w3.org/2000/svg"
   xmlns="http://www.w3.org/2000/svg"
   xmlns:sodipodi="http://sodipodi.sourceforge.net/DTD/sodipodi-0.dtd"
   xmlns:inkscape="http://www.inkscape.org/namespaces/inkscape"
   version="1.1"
   id="Camada_1"
   x="0px"
   y="0px"
   viewBox="0 0 598 437"
   style="enable-background:new 0 0 598 437;"
   xml:space="preserve"
   sodipodi:docname="6in logo branco.svg"
   inkscape:version="0.92.5 (2060ec1f9f, 2020-04-08)"><metadata
   id="metadata37"><rdf:RDF><cc:Work
       rdf:about=""><dc:format>image/svg+xml</dc:format><dc:type
         rdf:resource="http://purl.org/dc/dcmitype/StillImage" /><dc:title></dc:title></cc:Work></rdf:RDF></metadata><defs
   id="defs35" /><sodipodi:namedview
   pagecolor="#ffffff"
   bordercolor="#666666"
   borderopacity="1"
   objecttolerance="10"
   gridtolerance="10"
   guidetolerance="10"
   inkscape:pageopacity="0"
   inkscape:pageshadow="2"
   inkscape:window-width="1366"
   inkscape:window-height="705"
   id="namedview33"
   showgrid="false"
   inkscape:zoom="0.54004577"
   inkscape:cx="299"
   inkscape:cy="218.5"
   inkscape:window-x="-8"
   inkscape:window-y="-8"
   inkscape:window-maximized="1"
   inkscape:current-layer="Camada_1" />
<style
   type="text/css"
   id="style2">
	.st0{fill:#F12711;}
</style>
<g
   id="g12"
   style="fill:#ffffff">
	<path
   class="st0"
   d="M324.61,13.91c-6.05-3.5-12.72-5.25-20.03-5.25c-7.32,0-13.92,1.75-19.8,5.25   c-5.88,3.5-10.73,8.35-14.55,14.55c-3.5,6.05-5.25,12.72-5.25,20.03c0,7.16,1.83,13.92,5.49,20.27c3.5,6.05,8.27,10.89,14.31,14.55   c5.88,3.5,12.48,5.25,19.8,5.25c7.31,0,13.99-1.83,20.03-5.49c6.04-3.66,10.81-8.43,14.31-14.31c3.5-5.88,5.25-12.64,5.25-20.27   c0-7.31-1.75-13.99-5.25-20.03C335.26,22.26,330.49,17.41,324.61,13.91z"
   id="path4"
   style="fill:#ffffff" />
	<polygon
   class="st0"
   points="267.84,362.13 343.93,362.13 343.93,117.66 267.84,117.9  "
   id="polygon6"
   style="fill:#ffffff" />
	<path
   class="st0"
   d="M478.02,107.88h-4.29c-70.28,3.5-105.42,39.99-105.42,109.48v144.3h76.32v-144.3c0-26.24,9.7-39.75,29.1-40.55   h4.29c19.4,0.8,29.1,14.31,29.1,40.55v144.3h76.32v-144.3C583.44,147.87,548.3,111.38,478.02,107.88z"
   id="path8"
   style="fill:#ffffff" />
	<path
   class="st0"
   d="M218.83,158.46c-9.59-10.73-21.13-19.46-34.3-25.97h0c-9.99-4.93-20.88-8.02-32.47-9.25l-43.08,66.78   c4.59-1.46,9.58-2.22,14.91-2.22c7.64,0,14.95,1.56,21.71,4.65c6.8,3.11,12.72,7.3,17.58,12.46c4.87,5.17,8.77,11.32,11.6,18.3   c2.81,6.96,4.24,14.4,4.24,22.1c0,7.73-1.35,15.09-4.02,21.9c-2.66,6.81-6.41,12.88-11.15,18.06c-4.7,5.15-10.46,9.33-17.1,12.43   c-6.59,3.07-13.8,4.63-21.44,4.63c-7.94,0-15.3-1.63-21.86-4.84c-6.65-3.25-12.5-7.67-17.36-13.13   c-4.89-5.48-8.72-11.87-11.39-18.99c-2.68-7.14-4.03-14.84-4.03-22.89c0-8.58,3.83-21.31,10.81-33.13L209.7,6h-81.63L29.79,155.57   c-8.64,13.13-15.77,26.67-21.2,40.24c-5.52,13.8-8.32,28.7-8.32,44.27c0,17.78,3.2,34.67,9.52,50.21   c6.31,15.53,15.09,29.31,26.09,40.96c11.04,11.69,24.36,20.99,39.6,27.63c15.24,6.65,32,10.02,49.82,10.02   c17.53,0,34.08-3.54,49.19-10.53c15.05-6.95,28.27-16.4,39.29-28.07c11.01-11.66,19.79-25.44,26.1-40.96   c6.31-15.54,9.51-32.12,9.51-49.26c0-15.23-2.71-30.1-8.06-44.21C235.98,181.78,228.41,169.19,218.83,158.46z"
   id="path10"
   style="fill:#ffffff" />
</g>
<g
   id="g30"
   style="fill:#ffffff">
	<path
   d="M301.86,393.19c2.93,1.82,5.26,4.33,6.97,7.53c1.71,3.21,2.57,6.85,2.57,10.93c0,4.03-0.85,7.62-2.54,10.78   c-1.69,3.16-4.02,5.62-6.97,7.38c-2.96,1.77-6.23,2.65-9.81,2.65c-5.87,0-10.19-2.26-12.98-6.79l-2.98,6.04h-8.28v-58.17h11.56   v23.49c2.83-4.37,7.06-6.56,12.68-6.56C295.67,390.47,298.92,391.37,301.86,393.19z M296.67,419.52c1.86-2.01,2.8-4.66,2.8-7.94   c0-3.33-0.92-6.03-2.76-8.09c-1.84-2.06-4.25-3.1-7.23-3.1c-3.03,0-5.47,1.02-7.31,3.06c-1.84,2.04-2.76,4.72-2.76,8.06   c0,3.33,0.92,6,2.76,8.02c1.84,2.01,4.28,3.02,7.31,3.02C292.41,422.54,294.81,421.53,296.67,419.52z"
   id="path14"
   style="fill:#ffffff" />
	<path
   d="M345.56,426.64c-1.34,1.89-3.03,3.33-5.07,4.33c-2.04,0.99-4.33,1.49-6.86,1.49c-2.98,0-5.62-0.66-7.91-1.98   c-2.29-1.32-4.06-3.17-5.33-5.56c-1.27-2.39-1.9-5.15-1.9-8.28v-25.43h11.56v23.64c0,2.29,0.71,4.14,2.13,5.56   c1.42,1.42,3.27,2.13,5.56,2.13c2.24,0,4.07-0.71,5.48-2.13c1.42-1.42,2.13-3.27,2.13-5.56v-23.64h11.56v40.5h-8.28L345.56,426.64z   "
   id="path16"
   style="fill:#ffffff" />
	<path
   d="M370.33,430.82c-2.64-1.09-4.45-2.19-5.44-3.28l4.33-7.01c2.63,1.69,5.99,2.64,10.07,2.83c1.64,0.05,2.82-0.22,3.54-0.82   c0.72-0.6,1.08-1.32,1.08-2.16c0-0.7-0.25-1.34-0.75-1.94c-0.5-0.6-1.27-1.07-2.31-1.42l-4.55-1.49c-2.59-0.84-4.64-1.65-6.15-2.42   c-1.52-0.77-2.76-1.85-3.73-3.24c-0.97-1.39-1.45-3.23-1.45-5.52c0-2.29,0.55-4.49,1.64-6.6c1.09-2.11,2.8-3.85,5.11-5.22   c2.31-1.37,5.21-2.05,8.69-2.05c5.72,0,10.57,1.39,14.54,4.18l-4.85,7.53c-2.88-1.74-5.84-2.61-8.88-2.61   c-1.49,0-2.62,0.26-3.39,0.78s-1.16,1.23-1.16,2.13c0,0.8,0.31,1.47,0.93,2.01c0.62,0.55,1.6,1.02,2.95,1.42l4.4,1.42   c3.68,1.24,6.39,2.8,8.13,4.66c1.74,1.87,2.61,4.49,2.61,7.87c0,2.54-0.71,4.76-2.13,6.67c-1.42,1.92-3.36,3.38-5.82,4.4   c-2.46,1.02-5.26,1.53-8.39,1.53C375.97,432.46,372.96,431.91,370.33,430.82z"
   id="path18"
   style="fill:#ffffff" />
	<path
   d="M404.45,383.87c-1.27-1.27-1.9-2.87-1.9-4.81c0-1.99,0.65-3.62,1.94-4.88c1.29-1.27,2.91-1.9,4.85-1.9s3.54,0.63,4.81,1.9   c1.27,1.27,1.9,2.9,1.9,4.88c0,1.94-0.63,3.54-1.9,4.81c-1.27,1.27-2.87,1.9-4.81,1.9C407.34,385.77,405.71,385.13,404.45,383.87z    M403.51,391.21h11.56v40.5h-11.56V391.21z"
   id="path20"
   style="fill:#ffffff" />
	<path
   d="M457.18,392.44c2.41,1.32,4.29,3.18,5.63,5.59c1.34,2.41,2.01,5.18,2.01,8.32v25.36h-11.56v-23.64   c0-2.29-0.77-4.14-2.31-5.56s-3.58-2.13-6.12-2.13c-2.59,0-4.65,0.7-6.19,2.09c-1.54,1.39-2.31,3.26-2.31,5.59v23.64h-11.56v-40.5   h8.28l2.98,5.22c1.44-1.94,3.26-3.42,5.44-4.44c2.19-1.02,4.65-1.53,7.38-1.53C451.99,390.47,454.76,391.13,457.18,392.44z"
   id="path22"
   style="fill:#ffffff" />
	<path
   d="M503.64,393.34c3.16,1.91,5.52,4.44,7.09,7.57c1.57,3.13,2.27,6.46,2.13,9.99l-0.3,4.62h-28.34   c0.05,1.09,0.36,2.24,0.93,3.43c0.57,1.19,1.53,2.23,2.87,3.1s3.11,1.3,5.3,1.3c1.84,0,3.53-0.46,5.07-1.38   c1.54-0.92,2.66-1.85,3.36-2.8l8.95,4.48c-1.94,2.79-4.45,4.95-7.53,6.49c-3.08,1.54-6.32,2.31-9.7,2.31   c-4.28,0-8.04-0.86-11.3-2.57c-3.26-1.72-5.78-4.14-7.57-7.27c-1.79-3.13-2.69-6.71-2.69-10.74c0-4.23,0.86-7.96,2.57-11.19   c1.72-3.23,4.11-5.74,7.2-7.53s6.61-2.69,10.59-2.69C496.69,390.47,500.48,391.42,503.64,393.34z M498.57,402.06   c-1.42-1.67-3.47-2.5-6.15-2.5c-2.54,0-4.53,0.83-5.97,2.5c-1.44,1.67-2.19,3.57-2.24,5.71h16.48   C500.7,405.63,499.99,403.73,498.57,402.06z"
   id="path24"
   style="fill:#ffffff" />
	<path
   d="M523.89,430.82c-2.64-1.09-4.45-2.19-5.44-3.28l4.33-7.01c2.63,1.69,5.99,2.64,10.07,2.83c1.64,0.05,2.82-0.22,3.54-0.82   c0.72-0.6,1.08-1.32,1.08-2.16c0-0.7-0.25-1.34-0.75-1.94c-0.5-0.6-1.27-1.07-2.31-1.42l-4.55-1.49c-2.59-0.84-4.64-1.65-6.15-2.42   c-1.52-0.77-2.76-1.85-3.73-3.24c-0.97-1.39-1.45-3.23-1.45-5.52c0-2.29,0.55-4.49,1.64-6.6c1.09-2.11,2.8-3.85,5.11-5.22   c2.31-1.37,5.21-2.05,8.69-2.05c5.72,0,10.57,1.39,14.54,4.18l-4.85,7.53c-2.88-1.74-5.84-2.61-8.88-2.61   c-1.49,0-2.62,0.26-3.39,0.78s-1.16,1.23-1.16,2.13c0,0.8,0.31,1.47,0.93,2.01c0.62,0.55,1.6,1.02,2.95,1.42l4.4,1.42   c3.68,1.24,6.39,2.8,8.13,4.66c1.74,1.87,2.61,4.49,2.61,7.87c0,2.54-0.71,4.76-2.13,6.67c-1.42,1.92-3.36,3.38-5.82,4.4   c-2.46,1.02-5.26,1.53-8.39,1.53C529.53,432.46,526.53,431.91,523.89,430.82z"
   id="path26"
   style="fill:#ffffff" />
	<path
   d="M560.73,430.82c-2.64-1.09-4.45-2.19-5.44-3.28l4.33-7.01c2.63,1.69,5.99,2.64,10.07,2.83c1.64,0.05,2.82-0.22,3.54-0.82   c0.72-0.6,1.08-1.32,1.08-2.16c0-0.7-0.25-1.34-0.75-1.94c-0.5-0.6-1.27-1.07-2.31-1.42l-4.55-1.49c-2.59-0.84-4.64-1.65-6.15-2.42   c-1.52-0.77-2.76-1.85-3.73-3.24c-0.97-1.39-1.45-3.23-1.45-5.52c0-2.29,0.55-4.49,1.64-6.6c1.09-2.11,2.8-3.85,5.11-5.22   c2.31-1.37,5.21-2.05,8.69-2.05c5.72,0,10.57,1.39,14.54,4.18l-4.85,7.53c-2.88-1.74-5.84-2.61-8.88-2.61   c-1.49,0-2.62,0.26-3.39,0.78s-1.16,1.23-1.16,2.13c0,0.8,0.31,1.47,0.93,2.01c0.62,0.55,1.6,1.02,2.95,1.42l4.4,1.42   c3.68,1.24,6.39,2.8,8.13,4.66c1.74,1.87,2.61,4.49,2.61,7.87c0,2.54-0.71,4.76-2.13,6.67c-1.42,1.92-3.36,3.38-5.82,4.4   c-2.46,1.02-5.26,1.53-8.39,1.53C566.38,432.46,563.37,431.91,560.73,430.82z"
   id="path28"
   style="fill:#ffffff" />
</g>
</svg>